<?xml version="1.0" encoding="UTF-8" standalone="no"?>
<!-- Created with Inkscape (http://www.inkscape.org/) -->

<svg
   version="1.1"
   id="svg1"
   width="110"
   height="110"
   viewBox="0 0 110 110"
   sodipodi:docname="favicon.png"
   xmlns:inkscape="http://www.inkscape.org/namespaces/inkscape"
   xmlns:sodipodi="http://sodipodi.sourceforge.net/DTD/sodipodi-0.dtd"
   xmlns:xlink="http://www.w3.org/1999/xlink"
   xmlns="http://www.w3.org/2000/svg"
   xmlns:svg="http://www.w3.org/2000/svg">
  <defs
     id="defs1" />
  <sodipodi:namedview
     id="namedview1"
     pagecolor="#ffffff"
     bordercolor="#000000"
     borderopacity="0.25"
     inkscape:showpageshadow="2"
     inkscape:pageopacity="0.0"
     inkscape:pagecheckerboard="0"
     inkscape:deskcolor="#d1d1d1" />
  <g
     inkscape:groupmode="layer"
     inkscape:label="Image"
     id="g1">
    <image
       width="110"
       height="110"
       preserveAspectRatio="none"
       style="image-rendering:optimizeQuality"
       xlink:href="favicon.png"
       id="image1" />
    <path
       style="fill:#000000"
       d="M 3,54 V 9.9384423 L 15.25,10.219221 27.5,10.5 v 4 4 L 20.25,18.79381 13,19.087619 V 54 88.912381 L 20.25,89.20619 27.5,89.5 v 4 4 L 15.25,97.780779 3,98.061558 Z M 83.6967,97.363367 C 83.313515,96.980182 83,94.941667 83,92.833333 V 89 H 90.5 98 V 54 19 H 90.5 83 V 14.469221 9.9384423 L 95.25,10.219221 107.5,10.5 V 54 97.5 l -11.5533,0.280034 c -6.354315,0.154018 -11.866815,-0.03348 -12.25,-0.416667 z M 66.472595,88.969718 c -2.831638,-3.128925 -1.002841,-7.3668 3.360784,-7.787949 C 73.761199,80.802682 76,82.388944 76,85.551016 c 0,5.055579 -6.073706,7.234996 -9.527405,3.418702 z M 35,86.5 V 83 H 38.5 42 V 64.5 46 H 38.439635 34.879269 L 35.189635,42.25 35.5,38.5 H 43 50.5 L 50.769132,60.75 51.038263,83 H 54.519132 58 V 86.5 90 H 46.5 35 Z M 68.279917,48.979905 C 63.267375,46.962946 65.105446,39 70.583559,39 c 5.103633,0 7.320082,6.55323 3.193935,9.443296 -2.510424,1.758369 -2.470859,1.754507 -5.497577,0.536609 z M 42.188561,31.961045 c -2.832193,-2.638589 -2.783263,-6.053723 0.12589,-8.786731 3.003729,-2.821857 5.203819,-2.746953 8.231004,0.280231 5.736741,5.736742 -2.419001,14.038489 -8.356894,8.5065 z"
       id="path1" />
  </g>
</svg>
